<?xml version="1.0" encoding="UTF-8" standalone="no"?>
<svg
   xmlns="http://www.w3.org/2000/svg"
   viewBox="0 0 162.52 162.52"
   height="162.52"
   width="162.52"
   version="1.1">
  <defs>
    <filter id="shadow" x="-20%" y="-20%" width="140%" height="140%">
      <feDropShadow dx="0" dy="2" stdDeviation="3" flood-opacity="0.25"/>
    </filter>
  </defs>
  <g transform="matrix(1.3333333,0,0,-1.3333333,0,162.52)">
    <g transform="scale(0.1)">
      <!-- Weisser Hintergrund mit abgerundeten Ecken und Schatten -->
      <rect x="1.11" y="0" width="1218.9" height="1218.9" rx="80" ry="80" 
            style="fill:#ffffff;fill-opacity:1" filter="url(#shadow)"/>
      <!-- HMQ Buchstaben (blau) -->
      <path
         style="fill:#166ab8;fill-opacity:1;fill-rule:nonzero;stroke:none"
         d="M 886.102,493.301 c 0,46.168 3.636,67.441 32.195,67.441 29.16,0 32.191,-21.273 32.191,-67.441 V 312.258 c 0,-46.176 -3.636,-67.438 -32.191,-67.438 -29.164,0 -32.195,21.262 -32.195,67.438 V 493.301 Z M 796.176,473.254 V 332.309 c 0,-113.004 25.523,-155.539 122.121,-155.539 10.316,0 61.973,6.679 154.923,7.3 l -0.66,-0.211 v 62.895 l 0.66,-0.117 h -10.32 c -20.67,0 -39.5,-3.645 -55.29,-11.539 l -1.22,1.82 c 26.73,13.973 34.02,44.352 34.02,95.391 v 140.945 c 0,113.004 -26.12,154.922 -122.113,154.922 -95.996,0 -122.121,-41.918 -122.121,-154.922 z M 429.832,621.488 V 184.07 h 70.473 v 359.047 h 6.074 L 551.34,184.07 h 80.812 l 51.02,359.047 h 5.476 V 184.07 h 74.719 V 621.488 H 641.863 L 596.902,307.391 h -4.254 L 553.16,621.488 Z m -279.473,0 V 184.07 h 89.926 V 380.91 H 302.25 V 184.07 h 89.914 V 621.488 H 302.25 V 448.344 h -61.965 v 173.144 h -89.926" />
      <!-- Rotes Dreieck -->
      <path
         style="fill:#ef3120;fill-opacity:1;fill-rule:nonzero;stroke:none"
         d="M 150.359,1042.19 V 648.719 l 393.477,196.726 z" />
      <!-- Kleines R-Symbol -->
      <path
         style="fill:#166ab8;fill-opacity:1;fill-rule:nonzero;stroke:none"
         d="m 1091.55,556.184 c 19.09,0 34.49,15.871 34.49,35.433 0,19.469 -15.4,35.434 -34.49,35.434 -18.99,0 -34.49,-15.965 -34.49,-35.434 0,-19.562 15.5,-35.433 34.49,-35.433 z m 0,4.523 c -16.72,0 -29.96,13.711 -29.96,30.91 0,17.301 13.24,30.91 29.96,30.91 16.82,0 29.96,-13.609 29.96,-30.91 0,-17.199 -13.14,-30.91 -29.96,-30.91 z m 0,29.215 c 8.51,0 7.19,-6.809 7.28,-8.508 0.1,-2.269 0.29,-9.078 0.66,-10.211 h 4.81 c -0.28,1.606 -0.56,3.121 -0.56,4.727 0,14.652 -0.76,15.312 -6.8,16.445 v 0.188 c 5.95,1.222 7.84,4.625 7.84,9.734 0,7.183 -2.93,10.578 -12.38,10.578 h -13.22 v -41.664 h 4.9 v 18.711 z m -7.47,18.43 h 8.04 c 4.63,0 7,-1.137 7,-5.961 0,-6.528 -2.75,-7.946 -8.61,-7.946 h -6.43 v 13.907" />
    </g>
  </g>
</svg>